<!-- create -->
<svg xmlns="http://www.w3.org/2000/svg" style="display:none;">
  <symbol id="icon-cross" viewBox="0 0 24 24">
    <path
      d="M4 9a2 2 0 0 0-2 2v2a2 2 0 0 0 2 2h4a1 1 0 0 1 1 1v4a2 2 0 0 0 2 2h2a2 2 0 0 0 2-2v-4a1 1 0 0 1 1-1h4a2 2 0 0 0 2-2v-2a2 2 0 0 0-2-2h-4a1 1 0 0 1-1-1V4a2 2 0 0 0-2-2h-2a2 2 0 0 0-2 2v4a1 1 0 0 1-1 1z"
      fill="none"
      stroke="currentColor"
      stroke-width="2"
      stroke-linecap="round"
      stroke-linejoin="round"
    />
  </symbol>
  <!-- otros símbolos... -->
<symbol id="icon-plus" viewBox="0 0 24 24">
  <path d="M5 12h14" fill="none" stroke="currentColor" stroke-width="2" stroke-linecap="round" stroke-linejoin="round"/>
  <path d="M12 5v14" fill="none" stroke="currentColor" stroke-width="2" stroke-linecap="round" stroke-linejoin="round"/>
</symbol>

<symbol id="icon-chart-pie" viewBox="0 0 24 24">
  <path d="M21 12c.552 0 1.005-.449.95-.998a10 10 0 0 0-8.953-8.951c-.55-.055-.998.398-.998.95v8a1 1 0 0 0 1 1z"
        fill="none" stroke="currentColor" stroke-width="2" stroke-linecap="round" stroke-linejoin="round" />
  <path d="M21.21 15.89A10 10 0 1 1 8 2.83"
        fill="none" stroke="currentColor" stroke-width="2" stroke-linecap="round" stroke-linejoin="round" />
</symbol>

<symbol id="icon-circle-dollar-sign" viewBox="0 0 24 24">
  <circle cx="12" cy="12" r="10"
          fill="none" stroke="currentColor" stroke-width="2" stroke-linecap="round" stroke-linejoin="round" />
  <path d="M16 8h-6a2 2 0 1 0 0 4h4a2 2 0 1 1 0 4H8"
        fill="none" stroke="currentColor" stroke-width="2" stroke-linecap="round" stroke-linejoin="round" />
  <path d="M12 18V6"
        fill="none" stroke="currentColor" stroke-width="2" stroke-linecap="round" stroke-linejoin="round" />
</symbol>

<symbol id="icon-notepad-text" viewBox="0 0 24 24">
  <path d="M8 2v4"
        fill="none" stroke="currentColor" stroke-width="2" stroke-linecap="round" stroke-linejoin="round" />
  <path d="M12 2v4"
        fill="none" stroke="currentColor" stroke-width="2" stroke-linecap="round" stroke-linejoin="round" />
  <path d="M16 2v4"
        fill="none" stroke="currentColor" stroke-width="2" stroke-linecap="round" stroke-linejoin="round" />
  <rect width="16" height="18" x="4" y="4" rx="2"
        fill="none" stroke="currentColor" stroke-width="2" stroke-linecap="round" stroke-linejoin="round" />
  <path d="M8 10h6"
        fill="none" stroke="currentColor" stroke-width="2" stroke-linecap="round" stroke-linejoin="round" />
  <path d="M8 14h8"
        fill="none" stroke="currentColor" stroke-width="2" stroke-linecap="round" stroke-linejoin="round" />
  <path d="M8 18h5"
        fill="none" stroke="currentColor" stroke-width="2" stroke-linecap="round" stroke-linejoin="round" />
</symbol>

<symbol id="icon-user" viewBox="0 0 24 24">
  <path d="M19 21v-2a4 4 0 0 0-4-4H9a4 4 0 0 0-4 4v2"
        fill="none" stroke="currentColor" stroke-width="2" stroke-linecap="round" stroke-linejoin="round" />
  <circle cx="12" cy="7" r="4"
        fill="none" stroke="currentColor" stroke-width="2" stroke-linecap="round" stroke-linejoin="round" />
</symbol>

<symbol id="icon-eye" viewBox="0 0 24 24">
  <path
    d="M2.062 12.348a1 1 0 0 1 0-.696 10.75 10.75 0 0 1 19.876 0 1 1 0 0 1 0 .696 10.75 10.75 0 0 1-19.876 0"
    fill="none"
    stroke="currentColor"
    stroke-width="2"
    stroke-linecap="round"
    stroke-linejoin="round"
  />
  <circle
    cx="12"
    cy="12"
    r="3"
    fill="none"
    stroke="currentColor"
    stroke-width="2"
    stroke-linecap="round"
    stroke-linejoin="round"
  />
</symbol>
<symbol id="icon-pencil" viewBox="0 0 24 24">
  <path
    d="M21.174 6.812a1 1 0 0 0-3.986-3.987L3.842 16.174a2 2 0 0 0-.5.83l-1.321 4.352a.5.5 0 0 0 .623.622l4.353-1.32a2 2 0 0 0 .83-.497z"
    fill="none"
    stroke="currentColor"
    stroke-width="2"
    stroke-linecap="round"
    stroke-linejoin="round"
  />
  <path
    d="m15 5 4 4"
    fill="none"
    stroke="currentColor"
    stroke-width="2"
    stroke-linecap="round"
    stroke-linejoin="round"
  />
</symbol>
<symbol id="icon-trash-2" viewBox="0 0 24 24">
  <path
    d="M10 11v6"
    fill="none"
    stroke="currentColor"
    stroke-width="2"
    stroke-linecap="round"
    stroke-linejoin="round"
  />
  <path
    d="M14 11v6"
    fill="none"
    stroke="currentColor"
    stroke-width="2"
    stroke-linecap="round"
    stroke-linejoin="round"
  />
  <path
    d="M19 6v14a2 2 0 0 1-2 2H7a2 2 0 0 1-2-2V6"
    fill="none"
    stroke="currentColor"
    stroke-width="2"
    stroke-linecap="round"
    stroke-linejoin="round"
  />
  <path
    d="M3 6h18"
    fill="none"
    stroke="currentColor"
    stroke-width="2"
    stroke-linecap="round"
    stroke-linejoin="round"
  />
  <path
    d="M8 6V4a2 2 0 0 1 2-2h4a2 2 0 0 1 2 2v2"
    fill="none"
    stroke="currentColor"
    stroke-width="2"
    stroke-linecap="round"
    stroke-linejoin="round"
  />
</symbol>
<symbol id="icon-download" viewBox="0 0 24 24">
  <g fill="none" stroke="currentColor" stroke-width="2" stroke-linecap="round" stroke-linejoin="round">
    <path d="M12 15V3"/>
    <path d="M21 15v4a2 2 0 0 1-2 2H5a2 2 0 0 1-2-2v-4"/>
    <path d="m7 10 5 5 5-5"/>
  </g>
</symbol>

<svg xmlns="http://www.w3.org/2000/svg" style="display: none;">
  <symbol id="icon-user-plus" viewBox="0 0 24 24" fill="none" stroke="currentColor" stroke-width="2" stroke-linecap="round" stroke-linejoin="round">
    <path d="M16 21v-2a4 4 0 0 0-4-4H6a4 4 0 0 0-4 4v2"/>
    <circle cx="9" cy="7" r="4"/>
    <line x1="19" x2="19" y1="8" y2="14"/>
    <line x1="22" x2="16" y1="11" y2="11"/>
  </symbol>

  <symbol id="icon-package" viewBox="0 0 24 24" fill="none" stroke="currentColor" stroke-width="2" stroke-linecap="round" stroke-linejoin="round">
    <path d="M16.5 9.4 7.55 4.24"/>
    <path d="M21 16V8a2 2 0 0 0-1-1.73l-7-4a2 2 0 0 0-2 0l-7 4A2 2 0 0 0 3 8v8a2 2 0 0 0 1 1.73l7 4a2 2 0 0 0 2 0l7-4A2 2 0 0 0 21 16z"/>
    <path d="M3.3 7 12 2l8.7 5"/>
    <path d="M12 22V12"/>
  </symbol>

  <symbol id="icon-box" viewBox="0 0 24 24" fill="none" stroke="currentColor" stroke-width="2" stroke-linecap="round" stroke-linejoin="round">
    <path d="M21 16V8a2 2 0 0 0-1-1.73l-7-4a2 2 0 0 0-2 0l-7 4A2 2 0 0 0 3 8v8a2 2 0 0 0 1 1.73l7 4a2 2 0 0 0 2 0l7-4A2 2 0 0 0 21 16z"/>
    <path d="M3.3 7 12 2l8.7 5"/>
    <path d="M12 22V12"/>
  </symbol>

  <symbol id="icon-warehouse" viewBox="0 0 24 24" fill="none" stroke="currentColor" stroke-width="2" stroke-linecap="round" stroke-linejoin="round">
    <path d="M2 8a2 2 0 0 1 2-2h16a2 2 0 0 1 2 2v10a2 2 0 0 1-2 2H4a2 2 0 0 1-2-2Z"/>
    <path d="M6 12h4"/>
    <path d="M14 12h4"/>
    <path d="M6 16h4"/>
    <path d="M14 16h4"/>
    <path d="M6 20h4"/>
    <path d="M14 20h4"/>
  </symbol>

  <symbol id="icon-truck" viewBox="0 0 24 24" fill="none" stroke="currentColor" stroke-width="2" stroke-linecap="round" stroke-linejoin="round">
    <path d="M14.5 4H20a2 2 0 0 1 2 2v14a2 2 0 0 1-2 2h-5"/>
    <path d="M15 4v6h6"/>
    <path d="M9 20h6"/>
    <path d="M9 20a2 2 0 0 1-2-2v-8a2 2 0 0 1 2-2h6"/>
  </symbol>

  <symbol id="icon-archive" viewBox="0 0 24 24" fill="none" stroke="currentColor" stroke-width="2" stroke-linecap="round" stroke-linejoin="round">
    <rect width="20" height="5" x="2" y="3" rx="1"/>
    <path d="M4 8v11a2 2 0 0 0 2 2h12a2 2 0 0 0 2-2V8"/>
    <path d="M9 15h6"/>
  </symbol>

  <symbol id="icon-move" viewBox="0 0 24 24" fill="none" stroke="currentColor" stroke-width="2" stroke-linecap="round" stroke-linejoin="round">
    <path d="M8 18L12 22L16 18"/>
    <path d="M12 2V22"/>
    <path d="M8 6L12 2L16 6"/>
  </symbol>
</svg>

<svg xmlns="http://www.w3.org/2000/svg" style="display: none;">
  <symbol id="icon-shopping-cart" viewBox="0 0 24 24" fill="none" stroke="currentColor" stroke-width="2" stroke-linecap="round" stroke-linejoin="round">
    <circle cx="8" cy="21" r="1" />
    <circle cx="19" cy="21" r="1" />
    <path d="M2.05 2.05h2l2.66 12.42a2 2 0 0 0 2 1.58h9.78a2 2 0 0 0 1.95-1.57l1.65-7.43H5.12" />
  </symbol>
</svg>

<symbol id="icon-credit-card" viewBox="0 0 24 24">
  <rect width="20" height="14" x="2" y="5" rx="2"
        fill="none" stroke="currentColor" stroke-width="2" stroke-linecap="round" stroke-linejoin="round"/>
  <line x1="2" x2="22" y1="10" y2="10"
        fill="none" stroke="currentColor" stroke-width="2" stroke-linecap="round" stroke-linejoin="round"/>
</symbol>

<symbol id="icon-banknote" viewBox="0 0 24 24">
  <rect width="20" height="12" x="2" y="6" rx="2"
        fill="none" stroke="currentColor" stroke-width="2" stroke-linecap="round" stroke-linejoin="round"/>
  <circle cx="12" cy="12" r="2"
        fill="none" stroke="currentColor" stroke-width="2" stroke-linecap="round" stroke-linejoin="round"/>
  <path d="M6 12h.01"
        fill="none" stroke="currentColor" stroke-width="2" stroke-linecap="round" stroke-linejoin="round"/>
  <path d="M18 12h.01"
        fill="none" stroke="currentColor" stroke-width="2" stroke-linecap="round" stroke-linejoin="round"/>
</symbol>

<symbol id="icon-circle-check" viewBox="0 0 24 24">
  <path d="M12 2
           A10 10 0 1 0 12 22
           A10 10 0 1 0 12 2Z"
        fill="none" stroke="currentColor" stroke-width="2"
        stroke-linecap="round" stroke-linejoin="round"/>
  <path d="M9 12l2 2 4-4"
        fill="none" stroke="currentColor" stroke-width="2"
        stroke-linecap="round" stroke-linejoin="round"/>
</symbol>
<symbol id="icon-smartphone" viewBox="0 0 24 24">
  <path d="M7 2
           h10
           a2 2 0 0 1 2 2
           v16
           a2 2 0 0 1 -2 2
           H7
           a2 2 0 0 1 -2 -2
           V4
           a2 2 0 0 1 2 -2
           Z"
        fill="none" stroke="currentColor" stroke-width="2"
        stroke-linecap="round" stroke-linejoin="round"/>
  <path d="M12 18h.01"
        fill="none" stroke="currentColor" stroke-width="2"
        stroke-linecap="round" stroke-linejoin="round"/>
</symbol>

<symbol id="icon-receipt-text" viewBox="0 0 24 24">
  <path d="M4 2v20l2-1 2 1 2-1 2 1 2-1 2 1 2-1 2 1V2l-2 1-2-1-2 1-2-1-2 1-2-1-2 1Z"
        fill="none" stroke="currentColor" stroke-width="2"
        stroke-linecap="round" stroke-linejoin="round"/>
  <path d="M14 8H8"
        fill="none" stroke="currentColor" stroke-width="2"
        stroke-linecap="round" stroke-linejoin="round"/>
  <path d="M16 12H8"
        fill="none" stroke="currentColor" stroke-width="2"
        stroke-linecap="round" stroke-linejoin="round"/>
  <path d="M13 16H8"
        fill="none" stroke="currentColor" stroke-width="2"
        stroke-linecap="round" stroke-linejoin="round"/>
</symbol>
<symbol id="icon-printer" viewBox="0 0 24 24">
  <path d="M6 18H4a2 2 0 0 1-2-2v-5a2 2 0 0 1 2-2h16a2 2 0 0 1 2 2v5a2 2 0 0 1-2 2h-2"
        fill="none" stroke="currentColor" stroke-width="2"
        stroke-linecap="round" stroke-linejoin="round"/>
  <path d="M6 9V3a1 1 0 0 1 1-1h10a1 1 0 0 1 1 1v6"
        fill="none" stroke="currentColor" stroke-width="2"
        stroke-linecap="round" stroke-linejoin="round"/>
  <path d="M7 14h10a1 1 0 0 1 1 1v6a1 1 0 0 1 -1 1H7a1 1 0 0 1 -1-1v-6a1 1 0 0 1 1-1Z"
        fill="none" stroke="currentColor" stroke-width="2"
        stroke-linecap="round" stroke-linejoin="round"/>
</symbol>

<symbol id="icon-notebook-pen" viewBox="0 0 24 24">
  <path d="M13.4 2H6a2 2 0 0 0-2 2v16a2 2 0 0 0 2 2h12a2 2 0 0 0 2-2v-7.4"
        fill="none" stroke="currentColor" stroke-width="2"
        stroke-linecap="round" stroke-linejoin="round"/>
  <path d="M2 6h4"
        fill="none" stroke="currentColor" stroke-width="2"
        stroke-linecap="round" stroke-linejoin="round"/>
  <path d="M2 10h4"
        fill="none" stroke="currentColor" stroke-width="2"
        stroke-linecap="round" stroke-linejoin="round"/>
  <path d="M2 14h4"
        fill="none" stroke="currentColor" stroke-width="2"
        stroke-linecap="round" stroke-linejoin="round"/>
  <path d="M2 18h4"
        fill="none" stroke="currentColor" stroke-width="2"
        stroke-linecap="round" stroke-linejoin="round"/>
  <path d="M21.378 5.626a1 1 0 1 0-3.004-3.004l-5.01 5.012a2 2 0 0 0-.506.854l-.837 2.87a.5.5 0 0 0 .62.62l2.87-.837a2 2 0 0 0 .854-.506z"
        fill="none" stroke="currentColor" stroke-width="2"
        stroke-linecap="round" stroke-linejoin="round"/>
</symbol>









</svg>
